<svg width="22" height="24" viewBox="0 0 22 24" fill="none" xmlns="http://www.w3.org/2000/svg">
<path d="M1.39844 1.2002H6.70364C7.81964 1.2002 8.37764 1.2002 8.52764 1.5362C8.67524 1.8722 8.29604 2.2754 7.53644 3.0818L3.17084 7.7186C2.41124 8.525 2.03084 8.9282 2.17964 9.2642C2.32844 9.6002 2.88764 9.6002 4.00364 9.6002H8.59844M1.39844 22.8002L3.92564 17.1662C4.39364 16.1222 4.62644 15.6002 4.99844 15.6002C5.37044 15.6002 5.60324 16.1222 6.07124 17.1662L8.59844 22.8002M17.5984 21.6002V2.4002M17.5984 21.6002C16.7584 21.6002 15.1888 19.2074 14.5984 18.6002M17.5984 21.6002C18.4384 21.6002 20.0092 19.2074 20.5984 18.6002" stroke="#FFFDF9" stroke-width="1.5" stroke-linecap="round" stroke-linejoin="round"/>
</svg>
