<svg width="28" height="28" viewBox="0 0 28 28" fill="none" xmlns="http://www.w3.org/2000/svg">
<path d="M13.9989 3.5625C8.31388 3.5625 3.6875 8.24424 3.6875 13.9973C3.6875 19.7503 8.31388 24.4321 13.9989 24.4321C19.6839 24.4321 24.3103 19.7503 24.3103 13.9973C24.3103 8.24424 19.6839 3.5625 13.9989 3.5625ZM13.9989 5.30163C18.755 5.30163 22.5917 9.18424 22.5917 13.9973C22.5933 16.0788 21.8555 18.0916 20.5128 19.6686C19.1701 21.2455 17.3121 22.2815 15.2775 22.5877V16.5329H17.7247L18.1088 14.0173H15.2775V12.6434C15.2775 11.5999 15.6169 10.6721 16.5819 10.6721H18.1329V8.47728C17.8605 8.43989 17.2839 8.35902 16.1944 8.35902C13.919 8.35902 12.5854 9.57467 12.5854 12.3451V14.0173H10.2464V16.5329H12.5854V22.566C10.5787 22.2317 8.7549 21.1864 7.43972 19.6167C6.12455 18.047 5.40374 16.0553 5.40607 13.9973C5.40607 9.18424 9.24277 5.30163 13.9989 5.30163Z" fill="#6B2B00"/>
</svg>
