<svg width="21" height="21" viewBox="0 0 21 21" fill="none" xmlns="http://www.w3.org/2000/svg">
<path d="M5.6875 1.75L5.6875 7" stroke="#FFFDF9" stroke-width="1.3125" stroke-miterlimit="10" stroke-linecap="round" stroke-linejoin="round"/>
<path d="M5.6875 15.75L5.6875 19.25" stroke="#FFFDF9" stroke-width="1.3125" stroke-miterlimit="10" stroke-linecap="round" stroke-linejoin="round"/>
<path d="M8.75 12.25C8.75 10.5586 7.37887 9.1875 5.6875 9.1875C3.99613 9.1875 2.625 10.5586 2.625 12.25C2.625 13.9414 3.99613 15.3125 5.6875 15.3125C7.37887 15.3125 8.75 13.9414 8.75 12.25Z" stroke="#FFFDF9" stroke-width="1.3125" stroke-miterlimit="10" stroke-linecap="round" stroke-linejoin="round"/>
<path d="M15.3125 1.75L15.3125 5.25" stroke="#FFFDF9" stroke-width="1.3125" stroke-miterlimit="10" stroke-linecap="round" stroke-linejoin="round"/>
<path d="M15.3125 14L15.3125 19.25" stroke="#FFFDF9" stroke-width="1.3125" stroke-miterlimit="10" stroke-linecap="round" stroke-linejoin="round"/>
<path d="M18.375 8.75C18.375 7.05863 17.0039 5.6875 15.3125 5.6875C13.6211 5.6875 12.25 7.05863 12.25 8.75C12.25 10.4414 13.6211 11.8125 15.3125 11.8125C17.0039 11.8125 18.375 10.4414 18.375 8.75Z" stroke="#FFFDF9" stroke-width="1.3125" stroke-miterlimit="10" stroke-linecap="round" stroke-linejoin="round"/>
</svg>
