<svg width="24" height="24" viewBox="0 0 24 24" fill="none" xmlns="http://www.w3.org/2000/svg">
<path d="M2.39844 14.4002H7.70364C8.81964 14.4002 9.37764 14.4002 9.52764 14.7362C9.67524 15.0722 9.29604 15.4754 8.53644 16.2818L4.17084 20.9186C3.41124 21.725 3.03084 22.1282 3.17964 22.4642C3.32844 22.8002 3.88764 22.8002 5.00364 22.8002H9.59844M2.39844 8.4002L4.92564 2.7662C5.39364 1.7222 5.62644 1.2002 5.99844 1.2002C6.37044 1.2002 6.60324 1.7222 7.07124 2.7662L9.59844 8.4002M18.5984 21.6002V2.4002M18.5984 21.6002C17.7584 21.6002 16.1888 19.2074 15.5984 18.6002M18.5984 21.6002C19.4384 21.6002 21.0092 19.2074 21.5984 18.6002" stroke="#FFFDF9" stroke-width="1.5" stroke-linecap="round" stroke-linejoin="round"/>
</svg>
