<svg width="26" height="26" viewBox="0 0 26 26" fill="none" xmlns="http://www.w3.org/2000/svg">
<path d="M20.6354 5.32053C19.6421 4.31748 18.459 3.52216 17.1552 2.98092C15.8514 2.43968 14.4529 2.16335 13.0412 2.16803C7.12625 2.16803 2.30542 6.98886 2.30542 12.9039C2.30542 14.7997 2.80375 16.6414 3.73542 18.2664L2.21875 23.8347L7.90625 22.3397C9.47708 23.1955 11.2429 23.6505 13.0412 23.6505C18.9562 23.6505 23.7771 18.8297 23.7771 12.9147C23.7771 10.0439 22.6612 7.34636 20.6354 5.32053ZM13.0412 21.8305C11.4379 21.8305 9.86708 21.3972 8.49125 20.5847L8.16625 20.3897L4.78625 21.278L5.68542 17.9847L5.46875 17.6489C4.57776 16.2265 4.10475 14.5822 4.10375 12.9039C4.10375 7.98553 8.11208 3.97719 13.0304 3.97719C15.4137 3.97719 17.6562 4.90886 19.3354 6.59886C20.167 7.42638 20.826 8.41078 21.2742 9.49497C21.7224 10.5792 21.9508 11.7415 21.9462 12.9147C21.9679 17.833 17.9596 21.8305 13.0412 21.8305ZM17.9379 15.1572C17.6671 15.0272 16.3454 14.3772 16.1071 14.2797C15.8579 14.193 15.6846 14.1497 15.5004 14.4097C15.3162 14.6805 14.8071 15.2872 14.6554 15.4605C14.5037 15.6447 14.3412 15.6664 14.0704 15.5255C13.7996 15.3955 12.9329 15.103 11.9146 14.193C11.1129 13.478 10.5821 12.6005 10.4196 12.3297C10.2679 12.0589 10.3979 11.918 10.5387 11.7772C10.6579 11.658 10.8096 11.463 10.9396 11.3114C11.0696 11.1597 11.1237 11.0405 11.2104 10.8672C11.2971 10.683 11.2537 10.5314 11.1887 10.4014C11.1237 10.2714 10.5821 8.94969 10.3654 8.40803C10.1487 7.88803 9.92125 7.95303 9.75875 7.94219H9.23875C9.05458 7.94219 8.77292 8.00719 8.52375 8.27803C8.28542 8.54886 7.59208 9.19886 7.59208 10.5205C7.59208 11.8422 8.55625 13.1205 8.68625 13.2939C8.81625 13.478 10.5821 16.1864 13.2687 17.3455C13.9079 17.6272 14.4062 17.7897 14.7962 17.9089C15.4354 18.1147 16.0204 18.0822 16.4862 18.0172C17.0062 17.9414 18.0787 17.3672 18.2954 16.7389C18.5229 16.1105 18.5229 15.5797 18.4471 15.4605C18.3713 15.3414 18.2087 15.2872 17.9379 15.1572Z" fill="#FFFDF9"/>
</svg>
