<svg width="24" height="24" viewBox="0 0 24 24" fill="none" xmlns="http://www.w3.org/2000/svg">
<path d="M12.0011 7.47688C9.49514 7.47688 7.47272 9.4993 7.47272 12.0052C7.47272 14.5112 9.49514 16.5336 12.0011 16.5336C14.507 16.5336 16.5294 14.5112 16.5294 12.0052C16.5294 9.4993 14.507 7.47688 12.0011 7.47688ZM12.0011 14.9483C10.3805 14.9483 9.05798 13.6258 9.05798 12.0052C9.05798 10.3847 10.3805 9.06214 12.0011 9.06214C13.6217 9.06214 14.9442 10.3847 14.9442 12.0052C14.9442 13.6258 13.6217 14.9483 12.0011 14.9483ZM16.7149 6.23605C16.1298 6.23605 15.6573 6.70854 15.6573 7.29362C15.6573 7.87871 16.1298 8.3512 16.7149 8.3512C17.3 8.3512 17.7725 7.88092 17.7725 7.29362C17.7727 7.15469 17.7454 7.01709 17.6923 6.8887C17.6392 6.76031 17.5613 6.64366 17.4631 6.54542C17.3649 6.44718 17.2482 6.36928 17.1198 6.3162C16.9914 6.26311 16.8538 6.23588 16.7149 6.23605ZM20.8282 12.0052C20.8282 10.7865 20.8392 9.57878 20.7708 8.36224C20.7023 6.9492 20.38 5.69512 19.3467 4.66183C18.3112 3.62634 17.0593 3.30619 15.6463 3.23775C14.4275 3.1693 13.2198 3.18034 12.0033 3.18034C10.7845 3.18034 9.57683 3.1693 8.36029 3.23775C6.94724 3.30619 5.69317 3.62854 4.65988 4.66183C3.62438 5.69733 3.30424 6.9492 3.2358 8.36224C3.16735 9.58099 3.17839 10.7887 3.17839 12.0052C3.17839 13.2218 3.16735 14.4317 3.2358 15.6482C3.30424 17.0613 3.62659 18.3154 4.65988 19.3486C5.69537 20.3841 6.94724 20.7043 8.36029 20.7727C9.57904 20.8412 10.7867 20.8301 12.0033 20.8301C13.222 20.8301 14.4297 20.8412 15.6463 20.7727C17.0593 20.7043 18.3134 20.3819 19.3467 19.3486C20.3822 18.3132 20.7023 17.0613 20.7708 15.6482C20.8414 14.4317 20.8282 13.224 20.8282 12.0052ZM18.8853 17.2114C18.7241 17.6133 18.5298 17.9135 18.2185 18.2226C17.9072 18.5339 17.6091 18.7282 17.2073 18.8894C16.0459 19.3509 13.2883 19.2471 12.0011 19.2471C10.7139 19.2471 7.95404 19.3509 6.79269 18.8916C6.39086 18.7304 6.09058 18.5361 5.78148 18.2248C5.47017 17.9135 5.27588 17.6155 5.1147 17.2136C4.65546 16.0501 4.75923 13.2924 4.75923 12.0052C4.75923 10.718 4.65546 7.9582 5.1147 6.79685C5.27588 6.39502 5.47017 6.09475 5.78148 5.78564C6.09279 5.47654 6.39086 5.28004 6.79269 5.11886C7.95404 4.65962 10.7139 4.76339 12.0011 4.76339C13.2883 4.76339 16.0481 4.65962 17.2095 5.11886C17.6113 5.28004 17.9116 5.47433 18.2207 5.78564C18.532 6.09695 18.7263 6.39502 18.8875 6.79685C19.3467 7.9582 19.2429 10.718 19.2429 12.0052C19.2429 13.2924 19.3467 16.0501 18.8853 17.2114Z" fill="#6B2B00"/>
</svg>
