<svg width="20" height="24" viewBox="0 0 20 24" fill="none" xmlns="http://www.w3.org/2000/svg">
<path d="M14.6035 11.85L12.1225 5.59L10.0305 9.25L7.9385 5.59L5.4575 11.852H4.7405V12.793H8.4765V11.852H7.9235L8.4615 10.297L10.0305 12.867L11.5995 10.297L12.1375 11.852H11.5845V12.793H15.3355V11.852L14.6035 11.85ZM19.9385 9.938C19.9392 8.63274 19.6826 7.34015 19.1834 6.13412C18.6842 4.92809 17.9522 3.83227 17.0292 2.90931C16.1062 1.98635 15.0104 1.25435 13.8044 0.755148C12.5984 0.255949 11.3058 -0.000655939 10.0005 1.25918e-06C4.5165 1.25918e-06 0.0625 4.453 0.0625 9.938C0.0625 12.688 1.1835 15.168 2.9765 16.961C3.08878 17.0743 3.23221 17.1516 3.38854 17.1831C3.54488 17.2146 3.70706 17.199 3.85447 17.1381C4.00187 17.0772 4.12784 16.9738 4.21634 16.8412C4.30485 16.7085 4.35189 16.5525 4.3515 16.393C4.3513 16.1752 4.26546 15.9661 4.1125 15.811C2.559 14.2517 1.68851 12.1391 1.6925 9.938C1.6925 5.35 5.4125 1.614 10.0005 1.614C14.5885 1.614 18.3245 5.35 18.3245 9.938C18.3263 11.0315 18.1121 12.1146 17.694 13.1251C17.276 14.1355 16.6624 15.0534 15.8885 15.826L8.8645 22.849L10.0005 24L17.0395 16.961C17.9614 16.039 18.692 14.9439 19.1895 13.7387C19.687 12.5335 19.9416 11.2419 19.9385 9.938Z" fill="#DB3E3E"/>
</svg>
