<svg width="24" height="24" viewBox="0 0 24 24" fill="none" xmlns="http://www.w3.org/2000/svg">
<path d="M19.1151 3.51733C18.8883 3.53415 18.6658 3.58735 18.4559 3.67489H18.4531C18.2517 3.75473 17.2944 4.15744 15.839 4.76788L10.6234 6.96445C6.88096 8.54 3.2021 10.0915 3.2021 10.0915L3.24591 10.0746C3.24591 10.0746 2.99227 10.1579 2.72732 10.3395C2.56327 10.4432 2.42233 10.5796 2.3133 10.7401C2.1833 10.9309 2.07873 11.2227 2.11759 11.5243C2.18118 12.0345 2.51183 12.3404 2.74922 12.5092C2.98944 12.6802 3.21835 12.76 3.21835 12.76H3.22401L6.67395 13.9223C6.82868 14.419 7.72525 17.3666 7.94074 18.0455C8.06792 18.4511 8.19156 18.7047 8.34629 18.8983C8.42024 18.9972 8.50949 19.0799 8.61406 19.1463C8.66837 19.1789 8.72683 19.2041 8.78786 19.2212L8.75254 19.2127C8.76313 19.2155 8.77161 19.224 8.77938 19.2268C8.80765 19.2346 8.82672 19.2374 8.86275 19.2431C9.4089 19.4084 9.84765 19.0693 9.84765 19.0693L9.87237 19.0495L11.9093 17.1949L15.3232 19.814L15.4009 19.8472C16.1124 20.1595 16.833 19.9856 17.2138 19.679C17.5975 19.3703 17.7466 18.9753 17.7466 18.9753L17.7713 18.9117L20.4094 5.39668C20.4843 5.0632 20.5034 4.75092 20.4207 4.44782C20.3359 4.14085 20.139 3.87688 19.8689 3.70809C19.6425 3.57032 19.3798 3.50386 19.1151 3.51733ZM19.0437 4.9657C19.0409 5.01021 19.0494 5.00527 19.0296 5.09076V5.09853L16.4162 18.473C16.4049 18.4921 16.3858 18.5337 16.3335 18.5754C16.2784 18.6192 16.2346 18.6468 16.005 18.5556L11.8294 15.3544L9.30716 17.6534L9.83705 14.2692L16.6592 7.91049C16.9404 7.64907 16.8464 7.59396 16.8464 7.59396C16.8662 7.2732 16.4218 7.5 16.4218 7.5L7.81922 12.8293L7.8164 12.8152L3.69314 11.4268V11.424L3.68254 11.4219L3.70373 11.4134L3.72634 11.4021L3.74824 11.3943C3.74824 11.3943 7.42993 9.84282 11.1724 8.26728C13.0461 7.47809 14.9339 6.68326 16.3858 6.07C17.2469 5.70755 18.1088 5.34723 18.9717 4.98902C19.0296 4.96641 19.002 4.9657 19.0437 4.9657Z" fill="#6B2B00"/>
</svg>
